<svg xmlns="http://www.w3.org/2000/svg" viewBox="0 0 32 32">
  <circle cx="16" cy="16" r="16" fill="#F7931A"/>
  <path fill="#ffffff" d="M22.3 14.4c.3-2.1-1.3-3.3-3.5-3.9l.7-2.9-1.8-.4-.7 2.8c-.5-.1-.9-.2-1.4-.3l.7-2.8-1.8-.4-.7 2.9c-.4-.1-.8-.2-1.1-.3l-2.4-.6-.5 1.9 1.3.3c.7.2.9.7.8 1.1l-.8 3.3.2.1-1.2 4.6c-.1.2-.3.5-.8.4l-1.3-.3-.9 2 2.3.6c.4.1.8.2 1.2.3l-.7 2.9 1.8.4.7-2.9c.5.1 1 .2 1.4.4l-.7 2.8 1.8.5.7-2.9c3 .6 5.3.4 6.2-2.4.8-2.1 0-3.4-1.6-4.2 1.1-.3 2-1 2.2-2.5zm-4 5.6c-.5 2.1-4.2 1-5.4.7l1-4c1.2.3 5 1 4.4 3.3zm.5-5.6c-.5 2-3.6 1-4.5.7l.9-3.5c1 .3 4.2.9 3.6 2.8z"/>
</svg>
